<?xml version="1.0" standalone="no"?>
<!DOCTYPE svg PUBLIC "-//W3C//DTD SVG 1.1//EN" "http://www.w3.org/Graphics/SVG/1.1/DTD/svg11.dtd" >
<svg xmlns="http://www.w3.org/2000/svg">
<metadata></metadata>
<defs>
<font id="ormontlight" horiz-adv-x="1464" >
<font-face units-per-em="2048" ascent="1638" descent="-410" />
<missing-glyph horiz-adv-x="835" />
<glyph horiz-adv-x="0" />
<glyph horiz-adv-x="682" />
<glyph horiz-adv-x="651" d="M0 645v55h344v-55h-344z" />
<glyph unicode=" "  horiz-adv-x="835" />
<glyph unicode="&#x09;" horiz-adv-x="835" />
<glyph unicode="&#xa0;" horiz-adv-x="835" />
<glyph unicode="!" horiz-adv-x="798" d="M201 78q0 76 78 76q75 0 75 -76q0 -78 -75 -78q-78 0 -78 78zM250 367v1278h53v-1278h-53z" />
<glyph unicode="&#x22;" horiz-adv-x="475" d="M0 1018v237h55v-237h-55zM115 1018v237h55v-237h-55z" />
<glyph unicode="#" horiz-adv-x="2095" d="M0 0l528 678h66l-528 -678h-66zM78 678v53h493h66h387h66h497v-53h-540h-66h-387h-66h-450zM279 1001v56h544h68h387h65h445v-56h-488h-65h-387h-66h-503zM453 0l528 678h66l-527 -678h-67zM571 731l70 90l33 43l108 137h66l-141 -180l-33 -41l-37 -49h-66zM823 1057 l459 588h66l-457 -588h-68zM1024 731l70 90l32 43l109 137h65l-139 -180l-35 -41l-36 -49h-66zM1278 1057l457 588h67l-459 -588h-65z" />
<glyph unicode="$" d="M0 0v55h561v-30h55v30h119q186 0 306 131t120 332q0 192 -135.5 327.5t-327.5 135.5h-82v53h82q140 0 259 -69t188 -188t69 -259q0 -221 -131 -364q-136 -151 -344 -154h-2h-2h-678h-57zM0 1313q0 135 94 231t228 101h6h4h33h553v-56h-302v25h-55v-25h-229 q-116 0 -196.5 -80.5t-80.5 -195.5q0 -116 81 -197.5t196 -81.5h229v-53h-229h-13q-133 4 -226 101t-93 231zM561 25v30v926v53v555v25h55v-25v-555v-53v-926v-30h-55z" />
<glyph unicode="%" horiz-adv-x="1675" d="M-6 0l641 821l35 43l606 781h67l-641 -824l-32 -41l-609 -780h-67zM6 1423q0 89 64 153t153 64t152 -64t63 -153t-63 -153t-152 -64t-153 64t-64 153zM61 1423q0 -67 47 -114t115 -47t115 47t47 114t-47.5 114.5t-114.5 47.5t-114.5 -47.5t-47.5 -114.5zM907 221 q0 89 64 153t153 64t153 -64t64 -153t-64 -153t-153 -64t-153 64t-64 153zM963 221q0 -68 47 -115t114 -47q68 0 115 47.5t47 114.5t-47 114.5t-115 47.5q-67 0 -114 -47t-47 -115z" />
<glyph unicode="&#x26;" d="M0 573q0 136 51 236t146 195q44 41 102 63l-37 47q-51 80 -51 184q0 142 100.5 243t243.5 101t244.5 -101t101.5 -243q0 -143 -110 -198q-61 -28 -210.5 -41t-189.5 -21l613 -745q81 122 81 280q0 87 -26 164l51 19q31 -88 31 -183q0 -176 -103 -323l160 -195l-41 -32 l-151 182q-78 -94 -194.5 -147.5t-242.5 -53.5q-235 0 -401 166q-168 168 -168 403zM53 573q0 -140 69 -259t188 -188t259 -69q120 0 225 51t177 140l-637 774q-61 -20 -101 -57q-93 -93 -136.5 -188t-43.5 -204zM264 1298q0 -104 68 -188l20 -27q81 20 203 27 q139 10 189 28q95 35 103 138q1 11 1 22q0 121 -85.5 206t-207.5 85q-121 0 -206 -84.5t-85 -206.5z" />
<glyph unicode="'" horiz-adv-x="471" d="M20 1400v238h56v-238h-56z" />
<glyph unicode="(" horiz-adv-x="1071" d="M0 823q0 190 45 344q39 140 113 256q65 101 144 160t151 59v-55q-50 0 -118.5 -47t-131.5 -145q-148 -231 -148 -572q0 -162 39 -310t111 -261q60 -95 129 -145t119 -50v-55q-71 0 -148 59q-82 63 -145 162q-73 111 -115 256q-45 154 -45 344z" />
<glyph unicode=")" horiz-adv-x="1091" d="M139 2v55q50 0 119 50t129 145q73 113 112.5 261t39.5 310q0 164 -39 311.5t-111 260.5q-63 98 -131.5 145t-118.5 47v55q72 0 151 -59t144 -160q77 -122 115 -256q43 -147 43 -344t-43 -344q-40 -140 -117 -256q-64 -102 -143 -162q-77 -59 -150 -59z" />
<glyph unicode="*" horiz-adv-x="1183" d="M119 389l305 391h22v-55l-262 -336h-65zM119 780v54h293h34v45v333h52v-331v-47h34h291v-54h-301h-24v-55v-336h-52v336v55h-22h-305zM119 1212h65l262 -333v-45h-34l-262 335zM498 725v55h24l301 -391h-63zM498 834v47l262 331h63l-30 -43l-261 -335h-34z" />
<glyph unicode="+" horiz-adv-x="1304" d="M201 780v54h327v376h52v-376h325v-54h-325v-393h-52v393h-327z" />
<glyph unicode="," horiz-adv-x="999" d="M272 -141v282h56v-282h-56z" />
<glyph unicode="-" horiz-adv-x="905" d="M141 645v55h344v-55h-344z" />
<glyph unicode="." horiz-adv-x="974" d="M221 78q0 76 78 76t78 -76q0 -78 -78 -78t-78 78z" />
<glyph unicode="/" horiz-adv-x="1798" d="M225 0l643 821l31 43l608 781h68l-643 -824l-33 -41l-606 -780h-68z" />
<glyph unicode="0" d="M0 823q0 163 50.5 311.5t144.5 266.5q94 117 213 178q126 66 262 66t262 -66q119 -61 213 -178t144 -265.5t50 -312.5t-50 -313t-144 -266t-213 -178q-126 -66 -262 -66t-262 66q-119 61 -213 178q-94 118 -144.5 266.5t-50.5 312.5zM53 823q0 -208 82.5 -385t225 -280 t309.5 -103t309 103t224.5 279.5t82.5 385.5q0 208 -82.5 384.5t-224.5 279t-309 102.5t-309.5 -102.5t-225 -279t-82.5 -384.5z" />
<glyph unicode="1" horiz-adv-x="1255" d="M0 1008l629 637h55v-1645h-55v1565l-551 -557h-78z" />
<glyph unicode="2" d="M0 0v55l1038 1090q56 66 56 168q0 115 -81.5 195.5t-197.5 80.5h-584v56h553h31h6h4q134 -5 228 -101t94 -231q0 -130 -72 -207l-1001 -1051h667h56h377v-55h-377h-56h-741z" />
<glyph unicode="3" d="M0 0v55h702q119 0 220.5 62t161 168t59.5 231q0 185 -121 320.5t-293 146.5h-516l-2 55h491q166 0 252 56q99 64 99 219q0 132 -92 204t-259 72h-647h-55v56h49h656q194 0 301 -93q102 -86 102 -239q0 -185 -123 -264q-52 -32 -104 -45q103 -44 172 -119 q69 -73 106 -169.5t37 -199.5q0 -212 -143 -364q-69 -72 -159.5 -112t-188.5 -40h-650h-55z" />
<glyph unicode="4" d="M0 844v53l813 748h55v-748h475v-53h-475v-844h-55v844h-813zM78 897h735v668z" />
<glyph unicode="5" d="M0 0v55h735q186 0 306 131t120 332q0 192 -135.5 327.5t-327.5 135.5h-374h8h-13h-319v12v609v43h49h869v-56h-863v-555h643q140 0 259 -69t188 -188t69 -259q0 -221 -131 -364q-136 -151 -344 -154h-2h-2h-678h-57z" />
<glyph unicode="6" d="M0 700q0 41 1 152.5t1 198.5q0 96 49 213.5t129 197.5q180 180 434 180q197 0 357 -114q155 -113 223 -297h-57q-60 165 -202.5 261.5t-320.5 96.5q-152 0 -281 -75.5t-203.5 -204.5t-74.5 -281h-2v-160q47 103 127 183q180 180 434 180q124 0 237 -46.5t200 -133.5 q178 -178 178 -435q0 -256 -178 -434q-87 -87 -200 -133.5t-237 -46.5q-254 0 -434 180q-33 31 -64.5 77.5t-47.5 76.5l-15 31q-18 44 -27.5 80.5t-15.5 65t-8 87.5t-2 100zM55 616q0 -152 74.5 -281t203.5 -204.5t281 -75.5q114 0 218 44.5t179.5 119.5t120 179t44.5 218 q0 152 -75.5 281.5t-205 205t-281.5 75.5q-114 0 -217.5 -44.5t-178.5 -120t-119 -179.5t-44 -218z" />
<glyph unicode="7" d="M0 0l641 821l33 43l608 781h66l-641 -824l-33 -41l-608 -780h-66zM0 1589v56h1296v-56h-1296z" />
<glyph unicode="8" d="M0 516q0 103 37 199.5t106 169.5q69 75 172 119q-49 12 -102 45q-123 79 -123 264q0 155 100 239q107 93 302 93h102h102q194 0 301 -93q101 -85 101 -239q0 -185 -123 -264q-53 -33 -103 -45q103 -44 172 -119q69 -73 106.5 -169.5t37.5 -199.5q0 -208 -146 -364 q-70 -73 -159.5 -112.5t-186.5 -39.5h-10h-92h-92h-10q-98 0 -189 40t-160 112q-143 152 -143 364zM55 516q0 -191 129 -326t310 -135h6h186h8q181 0 310 135t129 326q0 185 -121 320.5t-293 146.5h-94h-31h-31h-94q-172 -11 -293 -146.5t-121 -320.5zM143 1313 q0 -155 99 -219q86 -56 252 -56h65h35h35h65q166 0 252 56q98 64 98 219q0 132 -91.5 204t-258.5 72h-92h-16h-92q-167 0 -259 -72t-92 -204z" />
<glyph unicode="9" d="M0 1028q0 123 46.5 236t133.5 200q178 178 434 178q257 0 435 -178q35 -35 73 -92.5t54 -91.5q35 -90 45 -157t10 -208q0 -33 -1 -138.5t-1 -182.5q0 -96 -49.5 -212.5t-130.5 -197.5q-88 -88 -200 -134t-235 -46q-197 0 -356 113q-153 111 -221 297h55q60 -165 202 -261 t320 -96q114 0 218 44.5t179.5 119.5t120 179t44.5 218v160q-48 -105 -127 -184q-178 -178 -435 -178q-256 0 -434 178q-180 180 -180 434zM53 1028q0 -152 75.5 -281t204.5 -203.5t281 -74.5q114 0 218 44t179.5 119t120 178.5t44.5 217.5t-44.5 218t-120 179t-179.5 119.5 t-218 44.5t-218 -44.5t-179 -119.5t-119.5 -179t-44.5 -218z" />
<glyph unicode=":" horiz-adv-x="974" d="M221 78q0 76 78 76t78 -76q0 -78 -78 -78t-78 78zM221 426q0 76 78 76t78 -76q0 -78 -78 -78t-78 78z" />
<glyph unicode=";" horiz-adv-x="774" d="M221 78q0 76 78 76t78 -76q0 -78 -78 -78t-78 78zM272 -74h54v-280h-54v280z" />
<glyph unicode="=" horiz-adv-x="905" d="M141 606v53h344v-53h-344zM141 799v55h344v-55h-344z" />
<glyph unicode="?" horiz-adv-x="1228" d="M201 78q0 76 78 76q75 0 75 -76q0 -78 -75 -78q-78 0 -78 78zM248 346v225v52v2q217 0 373 141q155 140 155 340t-155 340q-156 141 -373 141v55q238 0 409 -155q172 -156 172 -381q0 -223 -172 -379q-151 -136 -358 -154v-227h-51z" />
<glyph unicode="@" horiz-adv-x="2095" d="M6 702q0 191 74 365q72 170 199 297q131 131 296 201q167 71 365 71t365 -71t297 -201q129 -129 200 -297q74 -174 74 -365q0 -206 -113 -424t-270 -327v51v14q6 5 17 14.5t20 17.5t16 15q129 126 202 294t73 345q0 179 -70 342t-188 281t-281 188t-342 70t-342 -70 t-281 -188t-188 -281t-70 -342q0 -198 85 -377t239 -305q116 -96 260 -147t297 -51q231 0 436 117l27 -48q-215 -122 -463 -122q-167 0 -319 55q-156 59 -273 156q-163 134 -252.5 322.5t-89.5 399.5zM291 696q0 126 47.5 240t136.5 203t204 136.5t241 47.5t240.5 -47.5 t203.5 -136.5q83 -83 129 -187q6 -9 15 -28t23.5 -86.5t14.5 -145.5v-629q-7 -7 -16 -15t-20 -17.5t-17 -14.5v-14v436q-45 -102 -129 -186q-89 -89 -203.5 -136.5t-240.5 -47.5t-241 47.5t-204 136.5t-136.5 203.5t-47.5 240.5zM346 696q0 -116 45.5 -222t123 -183 t183.5 -122.5t222 -45.5q155 0 286.5 76t208.5 207t78 286v6q-1 116 -46.5 221.5t-122 182t-182.5 121.5t-222 45t-222 -45.5t-183.5 -122t-123 -182.5t-45.5 -222z" />
<glyph unicode="A" horiz-adv-x="1675" d="M-100 0l708 1645h51l709 -1645h-51l-393 911h-580l-391 -911h-53zM367 961h534l-266 622z" />
<glyph unicode="B" d="M0 0v1645h47h658q192 0 299 -93q102 -86 102 -239q0 -187 -123 -266q-56 -35 -102 -46q101 -43 170 -118q69 -74 107 -169.5t38 -197.5t-37.5 -196t-107.5 -168q-70 -73 -159.5 -112.5t-186.5 -39.5h-652h-53zM53 55h649q181 0 310 135t129 326q0 185 -121 320.5 t-293 146.5h-674v-928zM53 1036h649q166 0 252 56q99 64 99 221q0 132 -92 204t-259 72h-649v-553z" />
<glyph unicode="C" horiz-adv-x="1507" d="M0 823q0 164 52.5 312.5t150.5 265.5q98 118 221 178q132 66 272 66q163 0 319 -88t242 -244h-67q-92 132 -221.5 204t-272.5 72q-174 0 -321.5 -102.5t-233.5 -278.5t-86 -385t86 -385.5t233.5 -279.5t321.5 -103q138 0 265 68.5t219 193.5h61q-91 -147 -240.5 -232 t-304.5 -85q-140 0 -272 66q-123 60 -221 178q-99 118 -151 267q-52 146 -52 306v6z" />
<glyph unicode="D" horiz-adv-x="1675" d="M0 0v1645h35q49 0 143 1q68 2 133 2q49 0 96 -1q110 -3 209.5 -9.5t187 -29t161 -58t131.5 -97t98.5 -146t62.5 -204.5t23 -272v-2v-8v-8q-1 -152 -23 -272t-62.5 -204.5t-98.5 -146t-131.5 -97t-160.5 -58t-186.5 -28.5t-209.5 -9q-47 -1 -96 -1q-65 0 -132 2 q-119 1 -180 1zM49 1589l6 -1534q50 0 150 -1q37 0 74 1q55 1 107 -1q16 0 32 -1q72 0 140 6q84 7 159 18.5t142 38t123 64t101 96t76.5 134.5t48 179.5t17.5 231.5q-1 144 -22 257.5t-60.5 192.5t-95 137.5t-125 91.5t-151.5 55t-173 27q-90 6 -190 9q-43 1 -87 1 q-58 0 -119 -2q-83 -1 -126 -1h-27z" />
<glyph unicode="E" horiz-adv-x="1406" d="M0 0v1645h49h656h403v-56h-1053v-553h647h406v-53h-1053v-928h1053v-55h-403h-650h-55z" />
<glyph unicode="F" horiz-adv-x="1359" d="M0 0v1645h49h656h403v-56h-1053v-553h647h406v-53h-1053v-928v-55h-55z" />
<glyph unicode="G" horiz-adv-x="1779" d="M0 823q0 164 52.5 312.5t150.5 265.5q98 118 221 178q132 66 272 66q141 0 273 -66q123 -60 221 -178q58 -71 98 -146h-63q-90 154 -229 244t-300 90q-174 0 -321.5 -102.5t-233.5 -278.5t-86 -385t86 -385.5t233.5 -279.5t321.5 -103q166 0 309.5 96t232 260.5 t99.5 360.5h-424v53h476h4v-2q0 -164 -52.5 -313t-150.5 -266q-98 -118 -221 -178q-132 -66 -273 -66q-140 0 -272 66q-123 60 -221 178q-98 117 -150.5 266t-52.5 313z" />
<glyph unicode="H" d="M0 0v983v53v609h49h6v-609h500h500v609h4h49v-609v-53v-983h-53v55v928h-500h-500v-928v-55h-55z" />
<glyph unicode="I" horiz-adv-x="655" d="M100 0v1645h50h6v-662v-928v-55h-56z" />
<glyph unicode="J" horiz-adv-x="1255" d="M2 465v164h55v-133q0 -183 123.5 -312t296.5 -129q114 0 211 59t154 160.5t57 221.5v1149h55v-1151q0 -99 -36 -189.5t-103 -159.5q-139 -145 -338 -145q-197 0 -336 145q-130 133 -139 320z" />
<glyph unicode="K" horiz-adv-x="1359" d="M0 0v1645h55v-594l889 594h98l-979 -654l1059 -991h-78l-989 926v-926h-55z" />
<glyph unicode="L" d="M0 0v1645h55v-1590h1192v-55h-1192h-55z" />
<glyph unicode="M" horiz-adv-x="1779" d="M0 0v1645h55l670 -1575l672 1575h4h55v-1645h-55v1516l-645 -1516h-60l-641 1505v-1505h-55z" />
<glyph unicode="N" horiz-adv-x="1507" d="M0 0v1645h2h53h11l999 -1561v1561h55v-1645h-55h-10l-1000 1563v-1563h-55z" />
<glyph unicode="O" horiz-adv-x="1675" d="M0 823q0 164 52.5 312.5t150.5 265.5q98 118 221 178q132 66 272 66q141 0 273 -66q123 -60 221 -178q98 -117 150.5 -265.5t52.5 -312.5t-52.5 -313t-150.5 -266q-98 -118 -221 -178q-132 -66 -273 -66q-140 0 -272 66q-123 60 -221 178q-98 117 -150.5 266t-52.5 313z M55 823q0 -209 86 -385.5t233.5 -279.5t321.5 -103t321.5 103t233.5 279.5t86 385.5t-86 385t-233.5 278.5t-321.5 102.5t-321.5 -102.5t-233.5 -278.5t-86 -385z" />
<glyph unicode="P" horiz-adv-x="1359" d="M0 0v1645h47h658q192 0 299 -93q102 -86 102 -239q0 -187 -123 -266q-3 -3 -9 -7t-28.5 -15t-49 -19.5t-72 -15.5t-97.5 -7h-674v-928v-55h-53zM53 1036h649q166 0 252 56q99 64 99 221q0 132 -92 204t-259 72h-649v-553z" />
<glyph unicode="Q" horiz-adv-x="1779" d="M0 823q0 164 52.5 312.5t150.5 265.5q98 118 221 178q132 66 272 66q141 0 273 -66q123 -60 221 -178q98 -117 150.5 -265.5t52.5 -312.5q0 -161 -52 -310t-147 -265l178 -248h-67l-148 207q-82 -88 -188 -141q-132 -66 -273 -66q-140 0 -272 66q-123 60 -221 178 q-98 117 -150.5 266t-52.5 313zM55 823q0 -209 86 -385.5t233.5 -279.5t321.5 -103q121 0 231.5 51.5t198.5 145.5l-241 338h67l209 -295q83 105 129.5 241t46.5 287q0 209 -86 385t-233.5 278.5t-321.5 102.5t-321.5 -102.5t-233.5 -278.5t-86 -385z" />
<glyph unicode="R" d="M0 0v1645h49h656q194 0 301 -93q102 -86 102 -239q0 -187 -123 -266q-3 -3 -9 -7t-28.5 -15t-49 -19.5t-72 -15.5t-97.5 -7h-12l420 -983h-60l-420 983h-602v-928v-55h-55zM55 1036h647q163 0 252 58q99 64 99 219q0 132 -92 204t-259 72h-647v-553z" />
<glyph unicode="S" horiz-adv-x="1570" d="M0 0v55h735q186 0 306 131t120 332q0 192 -135.5 327.5t-327.5 135.5h-366h-13q-133 4 -226 101t-93 231q0 135 94 231t228 101h6h4h33h553v-56h-586q-116 0 -196.5 -80.5t-80.5 -195.5q0 -116 81 -197.5t196 -81.5h366q140 0 259 -69t188 -188t69 -259q0 -221 -131 -364 q-136 -151 -344 -154h-2h-2h-678h-57z" />
<glyph unicode="T" horiz-adv-x="1779" d="M-100 1589v56h741h55h742v-56h-742v-1589h-55v1589h-741z" />
<glyph unicode="U" d="M2 465v1180h55v-1149q0 -120 72.5 -221.5t197.5 -160.5t273 -59t273.5 59t198.5 160.5t73 221.5v1149h55v-1151q0 -100 -46 -191t-132 -160q-176 -143 -422 -143q-244 0 -420 143q-164 133 -176 322h-2z" />
<glyph unicode="V" horiz-adv-x="1759" d="M-100 1645h53l391 -914l23 -47l268 -623l266 623l23 47l393 914h51l-709 -1645h-51z" />
<glyph unicode="W" horiz-adv-x="2052" d="M0 1645h51l393 -914l23 -47l266 -623l268 623l23 47l225 526h54l-543 -1257h-51zM627 1257h51l227 -526l21 -47l268 -623l268 623l21 47l393 914h53l-708 -1645h-54z" />
<glyph unicode="X" horiz-adv-x="1675" d="M0 0l678 821l-678 824h70l643 -781l641 781h69l-675 -824l675 -821h-69l-641 780l-643 -780h-70z" />
<glyph unicode="Y" horiz-adv-x="1675" d="M0 1645h70l643 -781l641 781h69l-675 -824l-9 -8v-813h-55v813l-6 8z" />
<glyph unicode="Z" horiz-adv-x="1884" d="M0 0v55l1464 1534h-667h-56h-741v56h741h56h741v-56l-1464 -1534h667h56h741v-55h-741h-56h-741z" />
<glyph unicode="\" horiz-adv-x="1554" d="M0 1645h66l608 -781l33 -43l641 -821h-66l-608 780l-33 41z" />
<glyph unicode="_" horiz-adv-x="626" d="M0 645v55h344v-55h-344z" />
<glyph unicode="`" horiz-adv-x="2095" d="M0 1018v237h55v-237h-55z" />
<glyph unicode="a" horiz-adv-x="1632" d="M0 629q0 258 184 442q89 89 204 136.5t241 47.5t240.5 -47.5t203.5 -136.5q84 -84 129 -186v370h53v-622v-4v-4v-625h-53v371q-46 -104 -129 -187q-89 -89 -203.5 -136.5t-240.5 -47.5t-241 47.5t-204 136.5t-136.5 204t-47.5 241zM55 629q0 -116 45.5 -222t123 -183.5 t183.5 -123t222 -45.5t222 45t182.5 121.5t122 182t46.5 221.5v6q-1 155 -78 286.5t-208.5 208t-286.5 76.5q-116 0 -222 -45.5t-183.5 -122.5t-123 -183t-45.5 -222z" />
<glyph unicode="b" horiz-adv-x="1570" d="M0 0v1645h55v-760q45 102 129 186q89 89 204 136.5t241 47.5t240.5 -47.5t203.5 -136.5q182 -182 182 -442q0 -127 -46.5 -241.5t-135.5 -203.5t-203.5 -136.5t-240.5 -47.5t-241 47.5t-204 136.5q-83 83 -129 187v-371h-55zM55 629q0 -116 45.5 -222t123 -183.5 t183.5 -123t222 -45.5t222 45.5t183 123t122.5 183.5t45.5 222q0 155 -77 287t-209 209t-287 77q-116 0 -222 -45.5t-183.5 -122.5t-123 -183t-45.5 -222z" />
<glyph unicode="c" horiz-adv-x="1507" d="M0 629q0 258 184 442q89 89 204 136.5t241 47.5q152 0 278 -63q59 -29 126 -88.5t112 -118.5h-66q-81 104 -199 160.5t-251 56.5q-116 0 -222 -45.5t-183.5 -122.5t-123 -183t-45.5 -222t45.5 -222t123 -183.5t183.5 -123t222 -45.5q153 0 286 73.5t211 203.5h60 q-43 -71 -110 -140.5t-134 -107.5q-144 -84 -313 -84q-126 0 -241 47.5t-204 136.5t-136.5 204t-47.5 241z" />
<glyph unicode="d" horiz-adv-x="1675" d="M0 629q0 258 184 442q89 89 204 136.5t241 47.5t240.5 -47.5t203.5 -136.5q86 -86 131 -190v764h53v-1645h-53v377q-47 -109 -131 -193q-89 -89 -203.5 -136.5t-240.5 -47.5t-241 47.5t-204 136.5t-136.5 204t-47.5 241zM55 629q0 -116 45.5 -222t123 -183.5t183.5 -123 t222 -45.5t222 45.5t183 123t122.5 183.5t45.5 222q0 155 -77 287t-209 209t-287 77q-116 0 -222 -45.5t-183.5 -122.5t-123 -183t-45.5 -222z" />
<glyph unicode="e" horiz-adv-x="1570" d="M0 629q0 258 184 442q89 89 204 136.5t241 47.5q248 0 428 -168q177 -165 196 -415h-8h-1188q-2 -14 -2 -43q0 -116 45.5 -222t123 -183.5t183.5 -123t222 -45.5q157 0 296 81.5t214 219.5h57q-85 -154 -242 -255t-325 -101q-126 0 -241 47.5t-204 136.5t-136.5 204 t-47.5 241zM63 727h1131q-35 203 -196 339t-369 136q-210 0 -370 -136t-196 -339z" />
<glyph unicode="f" horiz-adv-x="1359" d="M0 0v1028v47q9 243 184 418q89 89 204 136.5t241 47.5q114 0 211 -33t158 -79t110 -109t72 -108t39 -91h-58q-61 168 -206 267.5t-326 99.5q-116 0 -222 -45.5t-183.5 -122.5t-123 -183t-45.5 -222v-43v-222h787v-55h-787v-731h-55z" />
<glyph unicode="g" horiz-adv-x="1632" d="M0 629q0 258 184 442q89 89 204 136.5t241 47.5t240.5 -47.5t203.5 -136.5q84 -84 129 -186v370h53v-1071q-5 -119 -51.5 -227.5t-130.5 -192.5q-89 -89 -203.5 -136.5t-240.5 -47.5q-202 0 -365 117q-160 114 -227 303h59q61 -168 206.5 -266.5t326.5 -98.5 q116 0 222 45.5t183 123t122.5 183.5t45.5 222v164q-48 -108 -129 -189q-89 -89 -203.5 -136.5t-240.5 -47.5t-241 47.5t-204 136.5t-136.5 204t-47.5 241zM55 629q0 -116 45.5 -222t123 -183.5t183.5 -123t222 -45.5t222 45.5t183 123t122.5 183.5t45.5 222q0 155 -77 287 t-209 209t-287 77q-116 0 -222 -45.5t-183.5 -122.5t-123 -183t-45.5 -222z" />
<glyph unicode="h" d="M0 0v1645h55v-654q40 73 97 121q154 135 374 135q223 0 383 -135q162 -137 162 -328v-784h-51v782q0 170 -145 291t-349 121q-192 0 -327 -112.5t-144 -278.5v-748v-55h-55z" />
<glyph unicode="i" horiz-adv-x="706" d="M0 0v1255h55v-505v-709v-41h-55zM0 1509q0 29 27 29q28 0 28 -29q0 -26 -28 -26q-27 0 -27 26z" />
<glyph unicode="j" horiz-adv-x="1570" d="M-59 -2h59q61 -168 206 -266.5t326 -98.5q116 0 222 45.5t183.5 123t123 183.5t45.5 222v1048h51v-1073q-5 -119 -51.5 -227.5t-130.5 -192.5q-182 -182 -443 -182q-204 0 -364 115q-160 114 -227 303z" />
<glyph unicode="k" horiz-adv-x="1548" d="M0 0v1645h55v-969l721 579h68l-594 -487l919 -768h-67l-893 735l-154 -127v-608h-55z" />
<glyph unicode="l" horiz-adv-x="626" d="M0 0v1645h49h6v-662v-928v-55h-55z" />
<glyph unicode="m" horiz-adv-x="2408" d="M0 0v1255h55v-264q40 73 97 121q154 135 374 135q223 0 383 -135q94 -79 135 -186q34 105 125 186q154 135 375 135q223 0 383 -135q162 -137 162 -328v-784h-53v782q0 170 -144 291t-348 121q-194 0 -330.5 -114t-142.5 -281v-15v-784h-51v782q0 170 -145 291t-349 121 q-192 0 -328 -112.5t-145 -278.5l2 -53v-709v-41h-55z" />
<glyph unicode="n" d="M0 0v1255h55v-264q40 73 97 121q154 135 374 135q223 0 383 -135q162 -137 162 -328v-784h-51v782q0 170 -145 291t-349 121q-192 0 -327 -112.5t-144 -278.5v-53v-709v-41h-55z" />
<glyph unicode="o" horiz-adv-x="1507" d="M0 629q0 258 184 442q89 89 204 136.5t241 47.5t240.5 -47.5t203.5 -136.5q182 -182 182 -442q0 -127 -46.5 -241.5t-135.5 -203.5t-203.5 -136.5t-240.5 -47.5t-241 47.5t-204 136.5t-136.5 204t-47.5 241zM55 629q0 -116 45.5 -222t123 -183.5t183.5 -123t222 -45.5 t222 45.5t183 123t122.5 183.5t45.5 222q0 155 -77 287t-209 209t-287 77q-116 0 -222 -45.5t-183.5 -122.5t-123 -183t-45.5 -222z" />
<glyph unicode="p" horiz-adv-x="1527" d="M0 -420v1675h55v-370q45 102 129 186q89 89 204 136.5t241 47.5t240.5 -47.5t203.5 -136.5q182 -182 182 -442q0 -127 -46.5 -241.5t-135.5 -203.5t-203.5 -136.5t-240.5 -47.5t-241 47.5t-204 136.5q-83 83 -129 187v-791h-55zM55 629q0 -116 45.5 -222t123 -183.5 t183.5 -123t222 -45.5t222 45.5t183 123t122.5 183.5t45.5 222q0 155 -77 287t-209 209t-287 77q-116 0 -222 -45.5t-183.5 -122.5t-123 -183t-45.5 -222z" />
<glyph unicode="q" horiz-adv-x="1570" d="M0 629q0 126 47.5 240.5t136.5 203.5t203.5 135.5t241.5 46.5t241 -46.5t203 -135.5q85 -85 133 -199v381h56v-1675h-56v801q-46 -110 -133 -197q-89 -89 -203.5 -136.5t-240.5 -47.5t-241 47.5t-204 136.5t-136.5 204t-47.5 241zM55 629q0 -116 45.5 -222t123 -183.5 t183.5 -123t222 -45.5t222 45.5t183 123t122.5 183.5t45.5 222q0 155 -77 287t-209 209t-287 77q-116 0 -222 -45.5t-183.5 -122.5t-123 -183t-45.5 -222z" />
<glyph unicode="r" horiz-adv-x="1423" d="M0 0v606l2 47h-2v602h55v-370q47 106 129 188q89 89 203.5 135.5t241.5 46.5q54 0 107 -7.5t126.5 -33.5t135.5 -69t123.5 -122.5t99.5 -184.5h-60q-61 168 -206 266t-326 98q-116 0 -222 -45.5t-183.5 -122.5t-123 -183t-45.5 -222v-43v-221v-54v-311h-55z" />
<glyph unicode="s" horiz-adv-x="1359" d="M0 0v55h668q138 0 234.5 97t96.5 235t-96.5 236t-234.5 98v2h-402q-107 3 -182.5 81t-75.5 185q0 110 78 188t188 78h572v-53h-572q-88 0 -149.5 -62.5t-61.5 -150.5t61.5 -150.5t149.5 -62.5h416q153 -9 259 -121.5t106 -267.5t-106 -266.5t-259 -120.5h-690z" />
<glyph unicode="t" horiz-adv-x="1376" d="M41 604v47v994h55v-361h787v-55h-787v-283v-53v-221v-43q0 -116 45.5 -222t122 -183.5t182.5 -123t222 -45.5q181 0 327 98.5t207 266.5h55q-68 -191 -225 -303q-163 -117 -364 -117q-126 0 -241 47.5t-204 136.5q-84 84 -130.5 192.5t-51.5 227.5z" />
<glyph unicode="u" horiz-adv-x="1591" d="M0 604v45v606h55v-309v-55v-219v-43q0 -106 39 -209v-4q64 -160 210 -260.5t325 -100.5q178 1 322 101t208 260q0 1 1 2t1 2q39 103 39 209v43v219v55v309h55v-606l-2 -45q-9 -226 -155 -391q-37 -44 -107 -96q-157 -114 -348 -117h-2h-10h-4q-202 0 -365 117 q-55 41 -106 98q-147 170 -156 389z" />
<glyph unicode="v" horiz-adv-x="1423" d="M-41 1255h53l391 -911l23 -49l102 -236l103 236l18 49l395 911h50l-539 -1255h-27h-28z" />
<glyph unicode="w" horiz-adv-x="2095" d="M0 1255h51l393 -911l23 -49l100 -236l103 236l20 49l182 424h54l182 -424l20 -49l103 -236l100 236l23 49l391 911h53l-541 -1255h-26h-27l-305 707l-305 -707h-27h-26z" />
<glyph unicode="x" d="M0 0l516 627l-516 628h70l483 -585l481 585h72l-518 -628l518 -627h-74l-479 584l-479 -584h-74z" />
<glyph unicode="y" horiz-adv-x="1548" d="M0 604v651h55l-2 -628q0 -120 41 -211q64 -160 210 -260.5t325 -100.5q108 0 216.5 44.5t194 128.5t119.5 188q20 62 30.5 271.5t10.5 388.5v179h53v-1071q-9 -226 -155 -391q-37 -44 -107 -96q-82 -59 -166 -88t-198 -29q-202 0 -365 117q-55 41 -106 98 q-81 94 -121 205h59q64 -161 210 -263t325 -102q165 0 316 102t214 259q2 4 5.5 12t13.5 38t14.5 70t9.5 107q2 28 2 58q0 43 -4 90q-7 -19 -36 -67t-66 -91q-37 -44 -107 -96q-161 -117 -364 -117q-202 0 -365 117q-55 41 -106 98q-147 170 -156 389z" />
<glyph unicode="z" d="M0 0l989 1202h-989v53h1034h17h55l-987 -1200h987v-55h-1036h-70z" />
<glyph unicode="&#xad;" horiz-adv-x="905" d="M141 645v55h344v-55h-344z" />
<glyph unicode="&#xbf;" horiz-adv-x="835" d="M0 539q0 223 172 379q150 135 358 153v227h54v-225v-51v-2q-219 0 -375 -141q-154 -139 -154 -340t154 -340q157 -142 375 -142v-55q-239 0 -412 156q-172 156 -172 381zM475 1567q0 78 78 78t78 -78t-78 -78t-78 78z" />
<glyph unicode="&#x2000;" horiz-adv-x="838" />
<glyph unicode="&#x2001;" horiz-adv-x="1677" />
<glyph unicode="&#x2002;" horiz-adv-x="838" />
<glyph unicode="&#x2003;" horiz-adv-x="1677" />
<glyph unicode="&#x2004;" horiz-adv-x="559" />
<glyph unicode="&#x2005;" horiz-adv-x="419" />
<glyph unicode="&#x2006;" horiz-adv-x="279" />
<glyph unicode="&#x2007;" horiz-adv-x="279" />
<glyph unicode="&#x2008;" horiz-adv-x="209" />
<glyph unicode="&#x2009;" horiz-adv-x="335" />
<glyph unicode="&#x200a;" horiz-adv-x="93" />
<glyph unicode="&#x2010;" horiz-adv-x="905" d="M141 645v55h344v-55h-344z" />
<glyph unicode="&#x2011;" horiz-adv-x="905" d="M141 645v55h344v-55h-344z" />
<glyph unicode="&#x2012;" horiz-adv-x="905" d="M141 645v55h344v-55h-344z" />
<glyph unicode="&#x2013;" horiz-adv-x="1585" d="M141 645v55h1024v-55h-1024z" />
<glyph unicode="&#x2014;" horiz-adv-x="2609" d="M141 645v55h2048v-55h-2048z" />
<glyph unicode="&#x202f;" horiz-adv-x="335" />
<glyph unicode="&#x205f;" horiz-adv-x="419" />
<glyph unicode="&#x25fc;" horiz-adv-x="1259" d="M0 0v1260h1260v-1260h-1260z" />
</font>
</defs>
</svg>
